<?xml version="1.0" encoding="utf-8"?>
<!-- Generator: Adobe Illustrator 27.5.0, SVG Export Plug-In . SVG Version: 6.00 Build 0)  -->
<svg version="1.1" xmlns="http://www.w3.org/2000/svg" xmlns:xlink="http://www.w3.org/1999/xlink" x="0px" y="0px"
	 viewBox="0 0 2200 1200" style="enable-background:new 0 0 2200 2200;" xml:space="preserve">
<g id="objects">
	<g>
		<g>
			<path style="fill:#9969F7;" d="M1483.439,958.111h-78.32c0-146.87-119.063-265.942-265.933-265.942
				S873.253,811.241,873.253,958.111h-78.32c0-190.126,154.127-344.253,344.253-344.253
				C1329.302,613.858,1483.439,767.985,1483.439,958.111z"/>
			<path style="fill:#2747E2;" d="M1561.75,958.111h-78.311c0-190.126-154.136-344.253-344.253-344.253
				c-190.126,0-344.253,154.127-344.253,344.253h-78.32c0-233.382,189.191-422.573,422.573-422.573
				C1372.559,535.538,1561.75,724.729,1561.75,958.111z"/>
			<path style="fill:#079ED3;" d="M1640.07,958.111h-78.32c0-233.382-189.191-422.573-422.564-422.573
				c-233.382,0-422.573,189.191-422.573,422.573h-78.311c0-276.638,224.246-500.894,500.885-500.894
				C1415.815,457.217,1640.07,681.473,1640.07,958.111z"/>
			<path style="fill:#78BF2C;" d="M1718.399,958.111h-78.329c0-276.638-224.255-500.894-500.885-500.894
				c-276.638,0-500.885,224.255-500.885,500.894h-78.329c0-319.894,259.329-579.214,579.214-579.214
				S1718.399,638.217,1718.399,958.111z"/>
			<path style="fill:#F9C126;" d="M1796.72,958.111h-78.32c0-319.894-259.328-579.214-579.214-579.214
				S559.972,638.217,559.972,958.111h-78.32c0-363.151,294.393-657.534,657.534-657.534S1796.72,594.961,1796.72,958.111z"/>
			<path style="fill:#F49E37;" d="M1875.031,958.111h-78.311c0-363.151-294.393-657.534-657.534-657.534
				S481.652,594.961,481.652,958.111h-78.32c0-406.398,329.456-735.854,735.854-735.854S1875.031,551.713,1875.031,958.111z"/>
			<path style="fill:#DD3344;" d="M1953.351,958.111h-78.32c0-406.398-329.447-735.854-735.845-735.854
				S403.331,551.713,403.331,958.111H325.02c0-449.654,364.511-814.174,814.165-814.174S1953.351,508.457,1953.351,958.111z"/>
		</g>
		<path style="fill:#DAEDEF;" d="M900.665,951.326c-13.815,64.2-75.719,116.471-161.814,64.45
			c-17.928,45.724-62.286,76.066-106.068,82.939c-55.995,8.794-115.5-29.683-130.453-84.354
			c-4.841,29.946-30.168,55.441-60.08,60.483c-29.912,5.035-62.196-10.757-76.573-37.464c-21.645,15.979-54.4,14.557-74.582-3.232
			c-18.885-16.659-24.925-46.03-14.848-68.971c-35.821-6.332-64.72-44.483-57.847-80.886c7.657-40.53,57.41-66.912,95.256-50.51
			c13.302-35.717,63.895-50.85,94.625-28.296c14.113-46.487,47.417-86.823,90.395-109.481
			c42.971-22.664,95.076-27.353,141.404-12.74c47.098,14.855,91.178,58.978,82.28,107.552
			c22.644-20.369,57.702-25.605,85.304-12.754c27.609,12.851,46.168,43.054,45.163,73.486
			C885.92,862.991,909.591,909.846,900.665,951.326z"/>
		<path style="fill:#DAEDEF;" d="M1980.763,951.326c-13.815,64.2-75.719,116.471-161.814,64.45
			c-17.928,45.724-62.286,76.066-106.068,82.939c-55.995,8.794-115.5-29.683-130.453-84.354
			c-4.841,29.946-30.168,55.441-60.08,60.483c-29.912,5.035-62.196-10.757-76.573-37.464c-21.645,15.979-54.401,14.557-74.582-3.232
			c-18.885-16.659-24.925-46.03-14.849-68.971c-35.821-6.332-64.72-44.483-57.847-80.886c7.656-40.53,57.41-66.912,95.256-50.51
			c13.302-35.717,63.895-50.85,94.625-28.296c14.113-46.487,47.417-86.823,90.395-109.481
			c42.971-22.664,95.076-27.353,141.404-12.74c47.098,14.855,91.178,58.978,82.28,107.552
			c22.644-20.369,57.702-25.605,85.304-12.754c27.609,12.851,46.168,43.054,45.162,73.486
			C1966.019,862.991,1989.689,909.846,1980.763,951.326z"/>
		<path d="M1977.494,887.814c-6.346-13.014-15.025-23.876-24.983-31.577c-24.364-196.411-119.419-377.399-267.844-509.843
			c-73.51-65.594-157.125-116.875-248.524-152.418c-94.619-36.796-194.53-55.453-296.957-55.453
			c-97.74,0-193.36,17.03-284.206,50.618c-87.776,32.452-168.861,79.47-241,139.748c-71.588,59.817-132.026,130.714-179.635,210.723
			c-48.203,81.007-81.725,168.881-99.674,261.217c-10.477,6.572-18.846,15.571-23.952,26.036
			c-18.271-6.073-39.758-3.934-58.563,6.038c-20.587,10.916-35.205,29.758-39.105,50.403c-3.434,18.191,1.059,37.45,12.653,54.23
			c10.799,15.63,26.307,26.885,43.254,31.587c-7.711,24.229-0.425,52.406,18.539,69.134c20.525,18.092,52.973,20.673,76.415,6.834
			c14.428,22.208,40.668,36.154,67.105,36.152c4.054,0,8.118-0.329,12.138-1.006c26.43-4.455,49.458-23.671,59.739-48.241
			c9.454,21.041,25.476,39.462,46.316,52.938c20.824,13.464,44.173,20.517,67.222,20.517c5.766,0,11.512-0.441,17.195-1.333
			c23.201-3.642,45.734-13.3,65.16-27.929c18.851-14.196,33.504-32.274,42.671-52.566c45.768,25.713,80.482,20.485,101.825,11.266
			c31.047-13.407,54.487-44.207,62.704-82.392c4.466-20.754,1.334-44.331-8.592-64.684c-1.789-3.669-3.769-7.161-5.905-10.466
			c16.542-50.714,49.203-96.174,92.208-128.223c45.194-33.68,98.96-51.482,155.488-51.482c47.279,0,93.577,12.793,133.888,36.997
			c36.604,21.978,67.337,52.69,89.338,89.175c-10.229,0.953-20.544,3.99-30.159,9.088c-20.586,10.916-35.204,29.758-39.104,50.403
			c-3.435,18.191,1.059,37.45,12.652,54.23c10.8,15.63,26.308,26.885,43.254,31.587c-7.711,24.228-0.425,52.405,18.538,69.134
			c20.527,18.093,52.973,20.674,76.416,6.834c14.428,22.208,40.668,36.154,67.104,36.152c4.054,0,8.118-0.329,12.139-1.006
			c26.431-4.455,49.458-23.671,59.739-48.241c9.454,21.042,25.476,39.462,46.317,52.938c20.823,13.464,44.172,20.517,67.222,20.517
			c5.766,0,11.512-0.441,17.196-1.333c23.201-3.642,45.733-13.3,65.159-27.929c18.851-14.196,33.504-32.274,42.672-52.566
			c45.768,25.712,80.479,20.484,101.826,11.266c31.046-13.407,54.485-44.208,62.702-82.392
			C1990.551,931.743,1987.419,908.167,1977.494,887.814z M443.701,545.179c46.979-78.949,106.618-148.909,177.26-207.936
			c71.182-59.478,151.187-105.871,237.794-137.891c89.634-33.139,183.984-49.942,280.431-49.942
			c101.072,0,199.655,18.408,293.011,54.713c90.182,35.07,172.686,85.67,245.221,150.394
			c144.259,128.725,237.423,303.915,263.161,494.342c-0.726-0.346-1.452-0.692-2.186-1.005
			c-0.557-31.195-19.998-61.512-48.335-74.701c-10.875-5.063-22.837-7.49-34.819-7.458
			c-20.638-76.992-53.484-149.817-97.682-216.514c-44.266-66.799-98.74-125.734-161.91-175.169
			c-63.802-49.928-134.745-88.792-210.858-115.511c-78.744-27.642-161.377-41.658-245.604-41.658
			c-83.014,0-164.521,13.623-242.258,40.491c-75.149,25.974-145.369,63.796-208.712,112.417
			C625.542,417.86,571.182,475.31,526.644,540.506c-45.008,65.885-78.841,138.054-100.579,214.517
			c-8.61,13.082-15.638,27.229-20.794,42.13c-15.059-8.278-34.112-10.029-52.398-4.561c-1.999,0.598-3.948,1.289-5.863,2.037
			C365.085,706.552,397.584,622.681,443.701,545.179z M1445.829,789.952c-61.559-112.055-178.693-181.506-306.643-181.506
			c-65.037,0-128.512,17.98-183.563,51.997c-51.339,31.723-93.637,76.177-122.741,128.875c-6.652-6.645-14.379-12.186-22.922-16.163
			c-12.762-5.942-27.02-8.263-41.052-7.227c33.876-65.146,84.345-120.28,146.504-159.871
			c66.807-42.552,144.187-65.044,223.774-65.044c152.346,0,292.105,82.743,365.574,216.156
			c-7.975,12.478-14.515,25.898-19.39,39.985C1473.823,790.805,1459.927,788.311,1445.829,789.952z M1511.635,747.143
			c-76.066-134.091-217.952-217.019-372.449-217.019c-81.663,0-161.065,23.081-229.623,66.748
			c-65.992,42.033-119.145,101.142-153.879,171.043c-9.472,2.17-18.575,5.903-26.742,11.115c0.215-21.874-9.18-42.484-23.968-59.64
			c87.276-158.432,253.295-256.7,434.212-256.7c87.259,0,173.049,22.995,248.097,66.499
			c71.293,41.327,131.561,100.191,174.607,170.44C1542.355,712.275,1525.314,728.462,1511.635,747.143z M1571.197,693.984
			c-43.991-71.805-105.587-131.972-178.454-174.212c-76.705-44.464-164.384-67.967-253.557-67.967
			c-183.729,0-352.429,99.162-442.062,259.282c-15.488-14.983-35.12-26.59-55.409-32.989c-0.971-0.306-1.947-0.591-2.922-0.881
			c48.533-86.266,118.79-158.856,203.575-210.207c89.263-54.063,191.901-82.639,296.817-82.639
			c104.002,0,205.869,28.111,294.587,81.296c83.849,50.265,153.745,121.341,202.587,205.885
			c-20.886,3.143-41.274,9.719-60.125,19.662C1574.538,692.109,1572.862,693.039,1571.197,693.984z M1648.086,670.145
			c-49.86-87.917-121.951-161.803-208.715-213.815c-90.409-54.197-194.211-82.845-300.185-82.845
			c-106.906,0-211.494,29.121-302.457,84.214C749.54,510.505,677.433,585.358,627.939,674.33
			c-24.591-5.728-50.135-6.43-74.898-2.273c52.03-106.432,131.953-196.64,231.705-261.358
			c105.521-68.462,228.084-104.649,354.439-104.649c128.658,0,253.099,37.417,359.87,108.207
			c100.132,66.387,179.56,158.336,230.457,266.534c-2.551-0.978-5.119-1.88-7.699-2.694
			C1697.932,670.565,1672.797,667.967,1648.086,670.145z M1744.634,687.636c-51.447-114.982-134.243-212.625-239.562-282.452
			c-108.561-71.975-235.082-110.02-365.886-110.02c-128.464,0-253.075,36.793-360.365,106.402
			c-103.748,67.311-186.387,161.754-239.162,273.227c-15.06,3.648-29.704,9.131-43.523,16.42
			c-19.363,10.208-36.712,23.756-51.349,39.76c21.352-65.341,51.841-127.228,90.848-184.327
			c43.885-64.243,97.452-120.853,159.211-168.259c62.412-47.906,131.599-85.172,205.639-110.763
			c76.59-26.471,156.9-39.894,238.701-39.894c82.996,0,164.416,13.809,241.998,41.043c74.99,26.325,144.888,64.617,207.755,113.812
			c62.247,48.712,115.926,106.786,159.543,172.609c43.147,65.111,75.318,136.146,95.682,211.229
			c-12.455,1.613-24.572,5.872-35.124,12.607C1809.416,740.811,1780.464,706.441,1744.634,687.636z M895.344,950.207
			c-7.48,34.749-28.556,62.673-56.377,74.687c-28.443,12.282-62.088,7.526-97.302-13.751c-1.373-0.831-3.044-1.011-4.562-0.497
			c-1.52,0.515-2.735,1.674-3.321,3.169c-8.15,20.785-22.516,39.347-41.545,53.677c-17.747,13.365-39.163,22.553-60.3,25.871
			c-53.203,8.359-110.151-28.469-124.358-80.413c-0.65-2.376-2.808-4.007-5.248-4.007c-0.097,0-0.195,0.003-0.293,0.008
			c-2.558,0.137-4.675,2.039-5.084,4.567c-4.488,27.764-27.876,51.309-55.61,55.984c-27.734,4.668-57.547-9.915-70.876-34.677
			c-0.748-1.39-2.063-2.386-3.602-2.732c-1.537-0.344-3.154-0.005-4.424,0.932c-19.659,14.511-49.418,13.223-67.748-2.935
			c-16.849-14.863-22.638-41.818-13.466-62.7c0.672-1.53,0.604-3.282-0.184-4.756c-0.788-1.473-2.208-2.503-3.853-2.793
			c-16.539-2.924-32.042-13.309-42.534-28.494c-9.927-14.368-13.802-30.712-10.912-46.021c3.291-17.423,15.818-33.425,33.508-42.805
			c17.691-9.38,37.965-10.771,54.236-3.72c1.369,0.593,2.924,0.598,4.297,0.013c1.374-0.585,2.447-1.709,2.968-3.108
			c5.655-15.184,19.576-27.403,37.237-32.684c17.661-5.283,36.003-2.71,49.067,6.877c1.423,1.045,3.265,1.334,4.94,0.776
			c1.675-0.558,2.976-1.894,3.489-3.583c4.96-16.337,12.287-31.803,21.578-45.95c0.353-0.394,0.65-0.843,0.879-1.34
			c16.448-24.568,38.88-45.045,65.269-58.957c20.451-10.787,43.755-17.613,67.392-19.742c23.635-2.13,47.782,0.423,69.835,7.379
			c23.059,7.273,44.78,21.643,59.594,39.424c11.338,13.61,23.833,35.406,18.97,61.956c-0.42,2.291,0.664,4.595,2.698,5.732
			c2.031,1.136,4.564,0.854,6.297-0.704c9.562-8.602,21.515-14.292,34.117-16.834c0.181-0.024,0.358-0.066,0.536-0.109
			c14.991-2.913,30.864-1.371,44.714,5.076c9.406,4.378,17.677,10.931,24.347,18.862c0.146,0.194,0.302,0.381,0.475,0.556
			c11.251,13.643,17.782,31.261,17.197,48.954c-0.079,2.385,1.406,4.545,3.662,5.324c14.579,5.041,27.907,18.114,36.564,35.867
			C896.488,910.789,899.307,931.791,895.344,950.207L895.344,950.207z M1278.678,725.306c-42.003-25.22-90.239-38.55-139.492-38.55
			c-58.89,0-114.906,18.548-161.994,53.639c-22.654,16.883-42.47,37.094-58.897,60.071c-14.651,20.491-26.304,42.774-34.725,66.361
			c-7.426-8.5-16.056-15.039-25.275-18.973c-0.321-17.92-6.882-35.544-17.773-49.805c28.245-52.582,69.952-96.913,120.823-128.346
			c53.33-32.953,114.826-50.371,177.841-50.371c122.805,0,235.329,66.033,295.412,172.815c-0.542,0.149-1.085,0.283-1.626,0.445
			c-18.96,5.67-34.35,18.281-42.155,34.274c-5.074-1.686-10.4-2.716-15.843-3.144C1351.879,783.29,1318.64,749.3,1278.678,725.306z
			 M1975.441,950.207c-7.478,34.752-28.553,62.672-56.375,74.687c-10.309,4.452-21.297,6.666-32.801,6.665
			c-20.233-0.001-42.051-6.851-64.501-20.416c-1.373-0.831-3.044-1.011-4.562-0.497c-1.52,0.515-2.735,1.674-3.321,3.168
			c-8.15,20.786-22.516,39.348-41.546,53.678c-17.748,13.365-39.162,22.553-60.299,25.871
			c-53.203,8.359-110.151-28.469-124.358-80.413c-0.649-2.376-2.807-4.007-5.247-4.007c-0.098,0-0.195,0.003-0.293,0.008
			c-2.558,0.137-4.674,2.039-5.083,4.567c-4.488,27.764-27.877,51.309-55.611,55.984c-27.73,4.668-57.546-9.915-70.876-34.677
			c-0.748-1.39-2.063-2.386-3.602-2.731c-1.542-0.345-3.154-0.005-4.424,0.932c-19.658,14.512-49.418,13.223-67.748-2.935
			c-16.85-14.863-22.638-41.819-13.466-62.7c0.672-1.53,0.604-3.282-0.183-4.755c-0.788-1.473-2.208-2.503-3.853-2.794
			c-16.539-2.924-32.042-13.31-42.535-28.495c-9.926-14.367-13.802-30.712-10.911-46.021c3.291-17.423,15.818-33.425,33.508-42.805
			c17.691-9.38,37.964-10.771,54.236-3.72c1.37,0.593,2.923,0.598,4.298,0.013c1.373-0.585,2.446-1.709,2.968-3.108
			c5.655-15.184,19.575-27.403,37.237-32.684c17.662-5.282,36.004-2.71,49.067,6.877c1.423,1.044,3.265,1.335,4.94,0.776
			c1.675-0.558,2.976-1.894,3.489-3.583c4.962-16.344,12.293-31.815,21.588-45.966c0.382-0.422,0.691-0.896,0.921-1.404
			c16.443-24.533,38.856-44.981,65.216-58.877c20.451-10.787,43.756-17.613,67.393-19.742c23.635-2.13,47.782,0.423,69.835,7.379
			c23.059,7.273,44.78,21.643,59.594,39.424c11.338,13.61,23.833,35.406,18.97,61.956c-0.42,2.291,0.665,4.595,2.698,5.732
			c2.034,1.136,4.564,0.854,6.297-0.704c12.272-11.04,28.481-17.292,44.951-18.229c0.01,0,0.019,0.002,0.028,0.002
			c0.235,0,0.472-0.017,0.71-0.048c11.545-0.545,23.191,1.527,33.676,6.409c25.677,11.951,42.956,40.066,42.019,68.371
			c-0.079,2.385,1.406,4.545,3.662,5.324c14.579,5.041,27.907,18.114,36.564,35.867
			C1976.586,910.789,1979.405,931.791,1975.441,950.207z"/>
	</g>
</g>
</svg>
